<svg xmlns="http://www.w3.org/2000/svg" xmlns:xlink="http://www.w3.org/1999/xlink" width="100" zoomAndPan="magnify" viewBox="0 0 75 74.999997" height="100" preserveAspectRatio="xMidYMid meet" version="1.0"><defs><clipPath id="a1fbb3b9be"><path d="M 0 4.125 L 67 4.125 L 67 70.875 L 0 70.875 Z M 0 4.125 " clip-rule="nonzero"/></clipPath></defs><path fill="#00ff7f" d="M 51.039062 26.554688 C 52.160156 26.347656 53.058594 25.386719 53.027344 24.242188 C 52.996094 22.789062 51.6875 21.761719 50.3125 22.023438 L 40.222656 23.902344 C 37.964844 24.320312 35.667969 24.53125 33.371094 24.53125 C 31.074219 24.53125 28.777344 24.320312 26.519531 23.902344 L 16.554688 22.046875 C 15.433594 21.839844 14.25 22.410156 13.863281 23.484375 C 13.375 24.847656 14.226562 26.277344 15.601562 26.53125 L 27.648438 28.773438 L 27.8125 34.921875 C 27.914062 38.902344 27.480469 42.871094 26.511719 46.734375 L 23.496094 58.78125 C 23.1875 60.019531 23.738281 61.378906 24.90625 61.882812 C 26.390625 62.523438 28.027344 61.667969 28.398438 60.167969 L 32.792969 42.628906 C 32.945312 42.019531 33.8125 42.019531 33.964844 42.628906 L 38.359375 60.167969 C 38.652344 61.332031 39.6875 62.097656 40.832031 62.097656 C 41.21875 62.097656 41.621094 62.007812 42.007812 61.8125 C 43.082031 61.273438 43.578125 59.996094 43.285156 58.828125 L 40.246094 46.742188 C 39.285156 42.878906 38.84375 38.910156 38.945312 34.929688 L 39.109375 28.78125 Z M 51.039062 26.554688 " fill-opacity="1" fill-rule="nonzero"/><path fill="#00ff7f" d="M 38.480469 18.011719 C 38.480469 18.347656 38.445312 18.679688 38.382812 19.007812 C 38.316406 19.335938 38.21875 19.652344 38.089844 19.964844 C 37.960938 20.273438 37.804688 20.566406 37.621094 20.84375 C 37.433594 21.125 37.222656 21.382812 36.984375 21.617188 C 36.75 21.855469 36.492188 22.066406 36.210938 22.253906 C 35.933594 22.4375 35.640625 22.59375 35.332031 22.722656 C 35.019531 22.851562 34.703125 22.949219 34.375 23.015625 C 34.046875 23.078125 33.714844 23.113281 33.378906 23.113281 C 33.042969 23.113281 32.710938 23.078125 32.382812 23.015625 C 32.054688 22.949219 31.738281 22.851562 31.425781 22.722656 C 31.117188 22.59375 30.824219 22.4375 30.546875 22.253906 C 30.265625 22.066406 30.007812 21.855469 29.773438 21.617188 C 29.535156 21.382812 29.324219 21.125 29.136719 20.84375 C 28.953125 20.566406 28.796875 20.273438 28.667969 19.964844 C 28.539062 19.652344 28.441406 19.335938 28.375 19.007812 C 28.3125 18.679688 28.277344 18.347656 28.277344 18.011719 C 28.277344 17.675781 28.3125 17.34375 28.375 17.015625 C 28.441406 16.6875 28.539062 16.371094 28.667969 16.058594 C 28.796875 15.75 28.953125 15.457031 29.136719 15.179688 C 29.324219 14.898438 29.535156 14.640625 29.773438 14.40625 C 30.007812 14.167969 30.265625 13.957031 30.546875 13.769531 C 30.824219 13.585938 31.117188 13.429688 31.425781 13.300781 C 31.738281 13.171875 32.054688 13.074219 32.382812 13.011719 C 32.710938 12.945312 33.042969 12.910156 33.378906 12.910156 C 33.714844 12.910156 34.046875 12.945312 34.375 13.011719 C 34.703125 13.074219 35.019531 13.171875 35.332031 13.300781 C 35.640625 13.429688 35.933594 13.585938 36.210938 13.769531 C 36.492188 13.957031 36.75 14.167969 36.984375 14.40625 C 37.222656 14.640625 37.433594 14.898438 37.621094 15.179688 C 37.804688 15.457031 37.960938 15.75 38.089844 16.058594 C 38.21875 16.371094 38.316406 16.6875 38.382812 17.015625 C 38.445312 17.34375 38.480469 17.675781 38.480469 18.011719 Z M 38.480469 18.011719 " fill-opacity="1" fill-rule="nonzero"/><g clip-path="url(#a1fbb3b9be)"><path fill="#00ff7f" d="M 33.378906 67.355469 C 16.910156 67.355469 3.519531 53.964844 3.519531 37.511719 C 3.519531 21.042969 16.910156 7.652344 33.378906 7.652344 C 47.40625 7.652344 59.1875 17.363281 62.375 30.421875 C 63.664062 30.4375 64.910156 30.605469 66.109375 30.910156 C 63.039062 15.660156 49.53125 4.125 33.378906 4.125 C 14.96875 4.132812 0 19.101562 0 37.511719 C 0 55.90625 14.96875 70.875 33.378906 70.875 C 42.078125 70.875 49.996094 67.535156 55.949219 62.066406 C 54.78125 61.597656 53.683594 61.007812 52.648438 60.289062 C 47.449219 64.683594 40.722656 67.355469 33.378906 67.355469 Z M 33.378906 67.355469 " fill-opacity="1" fill-rule="nonzero"/></g><path fill="#00ff7f" d="M 62.070312 33.925781 C 54.914062 33.925781 49.136719 39.707031 49.136719 46.859375 C 49.136719 53.949219 54.914062 59.726562 62.070312 59.726562 C 69.222656 59.726562 75 53.949219 75 46.796875 C 74.9375 39.714844 69.15625 33.925781 62.070312 33.925781 Z M 68.101562 45.121094 L 61.390625 51.832031 C 61.019531 52.203125 60.585938 52.394531 60.085938 52.394531 C 59.589844 52.394531 59.15625 52.203125 58.785156 51.832031 L 55.421875 48.476562 C 54.734375 47.734375 54.734375 46.613281 55.421875 45.863281 C 56.109375 45.175781 57.285156 45.175781 58.035156 45.863281 L 60.085938 47.917969 L 65.496094 42.507812 C 66.179688 41.824219 67.359375 41.824219 68.109375 42.507812 C 68.785156 43.257812 68.785156 44.433594 68.101562 45.121094 Z M 68.101562 45.121094 " fill-opacity="1" fill-rule="nonzero"/></svg>