<svg xmlns="http://www.w3.org/2000/svg" xmlns:xlink="http://www.w3.org/1999/xlink" width="100" zoomAndPan="magnify" viewBox="0 0 75 74.999997" height="100" preserveAspectRatio="xMidYMid meet" version="1.0"><defs><clipPath id="907fac7f8e"><path d="M 2 9 L 73 9 L 73 73.125 L 2 73.125 Z M 2 9 " clip-rule="nonzero"/></clipPath></defs><g clip-path="url(#907fac7f8e)"><path fill="#00ff7f" d="M 72.59375 67.273438 L 67.035156 53.375 C 66.882812 52.992188 66.675781 52.644531 66.429688 52.332031 C 67.160156 51.511719 67.621094 50.445312 67.621094 49.261719 L 67.621094 14.476562 C 67.621094 11.929688 65.539062 9.851562 62.996094 9.851562 L 53.308594 9.851562 L 49.878906 13.027344 L 62.996094 13.027344 C 63.792969 13.027344 64.445312 13.679688 64.445312 14.476562 L 64.445312 49.261719 C 64.445312 50.050781 63.804688 50.703125 63.019531 50.71875 L 11.988281 50.71875 C 11.195312 50.703125 10.554688 50.050781 10.554688 49.261719 L 10.554688 14.476562 C 10.554688 13.679688 11.207031 13.027344 12.015625 13.027344 L 37.089844 13.027344 L 40.03125 9.851562 L 12.015625 9.851562 C 9.460938 9.851562 7.378906 11.929688 7.378906 14.476562 L 7.378906 49.261719 C 7.378906 50.445312 7.839844 51.511719 8.570312 52.332031 C 8.324219 52.644531 8.117188 52.992188 7.964844 53.375 L 2.40625 67.273438 C 1.882812 68.574219 2.042969 70.046875 2.832031 71.210938 C 3.617188 72.375 4.925781 73.066406 6.332031 73.066406 L 68.667969 73.066406 C 70.074219 73.066406 71.382812 72.375 72.167969 71.210938 C 72.957031 70.046875 73.117188 68.574219 72.59375 67.273438 Z M 69.542969 69.433594 C 69.449219 69.574219 69.175781 69.898438 68.667969 69.898438 L 6.332031 69.898438 C 5.824219 69.898438 5.550781 69.574219 5.457031 69.433594 C 5.359375 69.292969 5.160156 68.917969 5.347656 68.449219 L 10.90625 54.554688 C 11.070312 54.148438 11.453125 53.890625 11.890625 53.890625 L 63.109375 53.890625 C 63.546875 53.890625 63.929688 54.148438 64.09375 54.550781 L 69.648438 68.449219 C 69.839844 68.917969 69.640625 69.292969 69.542969 69.433594 Z M 69.542969 69.433594 " fill-opacity="1" fill-rule="nonzero"/></g><path fill="#00ff7f" d="M 43.488281 61 L 31.511719 61 C 31.132812 61 30.804688 61.273438 30.734375 61.644531 L 29.675781 67.191406 C 29.632812 67.425781 29.695312 67.664062 29.84375 67.847656 C 29.996094 68.027344 30.21875 68.132812 30.457031 68.132812 L 44.542969 68.132812 C 44.78125 68.132812 45.003906 68.027344 45.15625 67.847656 C 45.304688 67.664062 45.367188 67.425781 45.324219 67.191406 L 44.265625 61.644531 C 44.195312 61.273438 43.867188 61 43.488281 61 Z M 31.414062 66.550781 L 32.167969 62.585938 L 42.832031 62.585938 L 43.585938 66.550781 Z M 31.414062 66.550781 " fill-opacity="1" fill-rule="nonzero"/><path fill="#00ff7f" d="M 50.363281 24.453125 C 49.378906 23.390625 48.042969 22.792969 46.59375 22.75 C 45.164062 22.707031 43.78125 23.226562 42.730469 24.210938 C 41.679688 25.203125 41.074219 26.53125 41.027344 27.980469 C 41.015625 28.710938 40.863281 29.429688 40.597656 30.117188 C 40.488281 30.414062 40.277344 30.789062 40.097656 31.101562 C 39.898438 31.410156 39.667969 31.765625 39.378906 32.0625 C 38.363281 33.269531 36.824219 34.121094 35.1875 34.398438 C 33.394531 34.683594 31.503906 34.332031 29.988281 33.433594 C 29.503906 33.15625 29.039062 32.828125 28.605469 32.4375 C 28.296875 32.472656 27.976562 32.484375 27.644531 32.496094 L 27.433594 32.503906 C 26.96875 32.503906 25.984375 32.460938 24.855469 32.152344 C 25.820312 33.667969 27.125 34.90625 28.640625 35.769531 C 30.675781 36.953125 33.207031 37.429688 35.621094 37.050781 C 37.910156 36.664062 39.976562 35.515625 41.394531 33.855469 C 41.804688 33.414062 42.101562 32.949219 42.390625 32.496094 C 42.644531 32.0625 42.921875 31.566406 43.097656 31.078125 C 43.472656 30.117188 43.683594 29.109375 43.714844 28.058594 C 43.738281 27.339844 44.039062 26.664062 44.566406 26.167969 C 45.097656 25.679688 45.785156 25.414062 46.515625 25.4375 C 47.246094 25.449219 47.910156 25.757812 48.417969 26.289062 C 48.90625 26.820312 49.167969 27.503906 49.148438 28.234375 C 49.136719 28.402344 49.125 28.566406 49.082031 28.710938 L 49.035156 28.988281 C 48.671875 30.59375 48.0625 32.074219 47.199219 33.421875 C 46.757812 34.152344 46.25 34.75 45.796875 35.269531 C 45.1875 35.957031 44.644531 36.464844 44.082031 36.886719 C 41.757812 38.765625 38.707031 39.828125 35.71875 39.785156 C 32.753906 39.730469 29.945312 38.710938 27.789062 36.898438 C 26.195312 35.582031 24.988281 33.886719 24.292969 31.972656 C 23.296875 31.609375 22.269531 31.046875 21.449219 30.09375 C 21.285156 29.917969 21.152344 29.71875 21.050781 29.507812 C 20.972656 29.851562 20.984375 30.214844 21.050781 30.558594 C 21.703125 33.84375 23.484375 36.832031 26.074219 38.953125 C 28.671875 41.15625 32.089844 42.40625 35.675781 42.472656 L 35.886719 42.472656 C 39.46875 42.472656 42.964844 41.242188 45.75 39 C 46.414062 38.488281 47.058594 37.890625 47.808594 37.0625 C 48.328125 36.464844 48.9375 35.734375 49.480469 34.863281 C 50.496094 33.257812 51.226562 31.476562 51.648438 29.574219 L 51.714844 29.296875 C 51.78125 28.976562 51.824219 28.644531 51.835938 28.3125 C 51.878906 26.863281 51.359375 25.503906 50.363281 24.453125 Z M 50.363281 24.453125 " fill-opacity="1" fill-rule="nonzero"/><path fill="#00ff7f" d="M 52.960938 3.140625 C 51.644531 1.921875 49.585938 2 48.367188 3.3125 L 32.21875 20.722656 C 27.890625 20.800781 25.625 24.097656 24.964844 26.046875 C 24.835938 26.246094 24.539062 26.582031 23.839844 26.582031 C 23.832031 26.582031 23.824219 26.582031 23.820312 26.582031 C 23.222656 26.597656 22.722656 26.910156 22.480469 27.429688 C 22.238281 27.953125 22.324219 28.574219 22.703125 29.007812 C 24.171875 30.714844 26.714844 30.84375 27.433594 30.84375 C 27.515625 30.84375 27.570312 30.84375 27.601562 30.839844 C 30.238281 30.78125 32.304688 29.980469 33.742188 28.460938 C 35.261719 26.855469 35.628906 24.890625 35.714844 23.898438 L 52.960938 7.90625 C 53.019531 7.851562 53.078125 7.792969 53.132812 7.734375 C 53.722656 7.097656 54.03125 6.269531 53.996094 5.402344 C 53.964844 4.535156 53.597656 3.730469 52.960938 3.140625 Z M 27.539062 28.515625 C 27.21875 28.527344 26.574219 28.484375 25.929688 28.308594 C 26.382812 28.007812 26.761719 27.601562 27.042969 27.105469 L 27.144531 26.875 C 27.191406 26.722656 28.246094 23.46875 31.714844 23.089844 C 31.816406 23.398438 31.976562 23.6875 32.207031 23.9375 C 32.496094 24.25 32.855469 24.460938 33.246094 24.582031 C 33.078125 25.269531 32.742188 26.128906 32.050781 26.859375 C 31.054688 27.914062 29.542969 28.46875 27.539062 28.515625 Z M 51.378906 6.199219 L 34.554688 21.726562 L 34.503906 21.683594 L 50.074219 4.894531 C 50.253906 4.699219 50.503906 4.601562 50.75 4.601562 C 50.972656 4.601562 51.199219 4.683594 51.378906 4.847656 C 51.558594 5.015625 51.664062 5.242188 51.671875 5.488281 C 51.679688 5.734375 51.59375 5.96875 51.378906 6.199219 Z M 51.378906 6.199219 " fill-opacity="1" fill-rule="nonzero"/></svg>