<svg xmlns="http://www.w3.org/2000/svg" xmlns:xlink="http://www.w3.org/1999/xlink" width="100" zoomAndPan="magnify" viewBox="0 0 75 74.999997" height="100" preserveAspectRatio="xMidYMid meet" version="1.0"><defs><clipPath id="38236c154a"><path d="M 0 7.5 L 75 7.5 L 75 66 L 0 66 Z M 0 7.5 " clip-rule="nonzero"/></clipPath></defs><g clip-path="url(#38236c154a)"><path fill="#00ff7f" d="M 68.152344 58.039062 C 67.484375 59.660156 65.617188 60.414062 64 59.753906 C 45.996094 52.386719 28.320312 52.0625 11.007812 59.632812 C 9.367188 60.355469 7.441406 59.621094 6.761719 57.96875 C 5.335938 54.515625 4.519531 50.808594 4.347656 46.976562 L 6.546875 46.976562 C 7.773438 46.976562 8.695312 46.050781 8.695312 44.832031 C 8.695312 43.609375 7.773438 42.683594 6.546875 42.683594 L 4.433594 42.683594 C 5.019531 35.824219 7.761719 29.289062 12.257812 24.035156 L 13.71875 25.488281 C 14.566406 26.335938 15.894531 26.335938 16.738281 25.488281 C 17.582031 24.640625 17.582031 23.316406 16.738281 22.46875 L 15.246094 20.96875 C 20.8125 15.941406 27.847656 12.972656 35.3125 12.492188 L 35.3125 14.890625 C 35.3125 16.117188 36.242188 17.039062 37.460938 17.039062 C 38.679688 17.039062 39.605469 16.117188 39.605469 14.890625 L 39.605469 12.492188 C 47.023438 12.964844 54.023438 15.898438 59.558594 20.84375 L 57.933594 22.46875 C 57.527344 22.875 57.300781 23.414062 57.300781 23.984375 C 57.300781 24.546875 57.527344 25.082031 57.933594 25.488281 C 58.753906 26.308594 60.140625 26.308594 60.953125 25.488281 L 62.558594 23.890625 C 67.125 29.164062 69.898438 35.746094 70.484375 42.683594 L 68.125 42.683594 C 66.953125 42.683594 65.925781 43.597656 65.898438 44.769531 C 65.875 46.015625 66.804688 46.976562 68.046875 46.976562 L 70.574219 46.976562 C 70.398438 50.84375 69.585938 54.566406 68.152344 58.039062 Z M 68.472656 24.546875 C 62 14.304688 50.523438 7.511719 37.46875 7.511719 C 23.824219 7.511719 11.90625 14.925781 5.574219 25.949219 C 2.054688 31.613281 0.0234375 38.273438 0.0234375 45.398438 C 0.0234375 50.785156 1.210938 56.125 3.429688 60.945312 C 4.175781 62.574219 5.042969 64.132812 6.019531 65.613281 L 69.039062 65.613281 C 70.003906 64.132812 70.871094 62.566406 71.613281 60.945312 C 73.804688 56.167969 74.976562 50.882812 74.976562 45.5625 C 74.976562 37.773438 72.578125 30.542969 68.472656 24.546875 " fill-opacity="1" fill-rule="nonzero"/></g><path fill="#00ff7f" d="M 37.515625 44.863281 C 36.574219 44.863281 35.808594 44.097656 35.808594 43.152344 C 35.808594 42.210938 36.574219 41.445312 37.515625 41.445312 C 38.460938 41.445312 39.226562 42.210938 39.226562 43.152344 C 39.226562 44.097656 38.460938 44.863281 37.515625 44.863281 Z M 47.925781 27.242188 C 47.4375 26.859375 46.828125 26.695312 46.214844 26.773438 C 45.597656 26.855469 45.050781 27.167969 44.695312 27.632812 L 34.226562 40.347656 L 34.203125 40.375 C 34.09375 40.523438 33.929688 40.757812 33.789062 41.03125 C 32.710938 43.125 33.539062 45.707031 35.636719 46.789062 C 36.257812 47.109375 36.921875 47.261719 37.578125 47.261719 C 39.132812 47.261719 40.636719 46.410156 41.402344 44.917969 L 48.566406 30.136719 C 49.078125 29.140625 48.808594 27.921875 47.925781 27.242188 " fill-opacity="1" fill-rule="nonzero"/></svg>