<svg xmlns="http://www.w3.org/2000/svg" xmlns:xlink="http://www.w3.org/1999/xlink" width="100" zoomAndPan="magnify" viewBox="0 0 75 74.999997" height="100" preserveAspectRatio="xMidYMid meet" version="1.0"><defs><clipPath id="47ea4e6d77"><path d="M 1 6.242188 L 60 6.242188 L 60 63 L 1 63 Z M 1 6.242188 " clip-rule="nonzero"/></clipPath><clipPath id="65f450bf2d"><path d="M 50 25 L 75 25 L 75 67.742188 L 50 67.742188 Z M 50 25 " clip-rule="nonzero"/></clipPath></defs><g clip-path="url(#47ea4e6d77)"><path fill="#00ff7f" d="M 59.867188 10.96875 L 57.425781 10.96875 L 57.425781 9.773438 C 57.425781 9.085938 56.863281 8.523438 56.175781 8.523438 L 4.910156 8.523438 C 4.210938 8.523438 3.664062 9.085938 3.664062 9.773438 L 3.664062 41.488281 C 3.664062 42.175781 4.222656 42.734375 4.910156 42.734375 L 32.988281 42.734375 L 32.988281 52.511719 L 27.589844 52.511719 L 25.757812 59.839844 L 32.988281 59.839844 L 32.988281 62.285156 L 19.546875 62.285156 C 18.859375 62.285156 18.324219 61.738281 18.324219 61.0625 C 18.324219 60.414062 18.875 59.839844 19.558594 59.839844 L 22.730469 59.839844 C 23.007812 59.839844 23.265625 59.625 23.328125 59.371094 L 25.046875 52.511719 L 4.910156 52.511719 C 2.875 52.511719 1.21875 50.855469 1.21875 48.855469 L 1.21875 9.734375 C 1.21875 7.710938 2.847656 6.082031 4.910156 6.082031 L 56.175781 6.082031 C 58.214844 6.082031 59.867188 7.734375 59.867188 9.734375 Z M 30.542969 50.066406 C 31.894531 50.066406 32.988281 48.972656 32.988281 47.621094 C 32.988281 46.273438 31.894531 45.179688 30.542969 45.179688 C 29.195312 45.179688 28.101562 46.273438 28.101562 47.621094 C 28.101562 48.972656 29.195312 50.066406 30.542969 50.066406 Z M 30.542969 50.066406 " fill-opacity="1" fill-rule="evenodd"/></g><path fill="#00ff7f" d="M 69.640625 23.1875 L 67.199219 23.1875 L 67.199219 18.300781 L 37.875 18.300781 L 37.875 57.398438 L 47.648438 57.398438 L 47.648438 64.726562 L 39.109375 64.726562 C 37.074219 64.726562 35.429688 63.097656 35.429688 61.050781 L 35.429688 17.089844 C 35.429688 15.054688 37.058594 13.410156 39.109375 13.410156 L 65.964844 13.410156 C 68 13.410156 69.640625 15.039062 69.640625 17.089844 Z M 69.640625 23.1875 " fill-opacity="1" fill-rule="evenodd"/><g clip-path="url(#65f450bf2d)"><path fill="#00ff7f" d="M 53.769531 25.628906 L 70.851562 25.628906 C 72.886719 25.628906 74.53125 27.257812 74.53125 29.308594 L 74.53125 63.492188 C 74.53125 65.53125 72.902344 67.171875 70.851562 67.171875 L 53.769531 67.171875 C 51.734375 67.171875 50.09375 65.542969 50.09375 63.492188 L 50.09375 29.308594 C 50.09375 27.273438 51.722656 25.628906 53.769531 25.628906 Z M 52.535156 57.398438 L 72.085938 57.398438 L 72.085938 30.515625 L 52.535156 30.515625 Z M 62.3125 64.726562 C 63.660156 64.726562 64.753906 63.632812 64.753906 62.285156 C 64.753906 60.933594 63.660156 59.839844 62.3125 59.839844 C 60.960938 59.839844 59.867188 60.933594 59.867188 62.285156 C 59.867188 63.632812 60.960938 64.726562 62.3125 64.726562 Z M 62.3125 64.726562 " fill-opacity="1" fill-rule="evenodd"/></g></svg>