<svg xmlns="http://www.w3.org/2000/svg" xmlns:xlink="http://www.w3.org/1999/xlink" width="100" zoomAndPan="magnify" viewBox="0 0 75 74.999997" height="100" preserveAspectRatio="xMidYMid meet" version="1.0"><defs><clipPath id="283f91aee1"><path d="M 7.5 1.089844 L 66.75 1.089844 L 66.75 73.839844 L 7.5 73.839844 Z M 7.5 1.089844 " clip-rule="nonzero"/></clipPath></defs><g clip-path="url(#283f91aee1)"><path fill="#00ff7f" d="M 37.304688 1.089844 L 7.515625 14.328125 L 7.515625 34.1875 C 7.515625 60.105469 28.828125 72.207031 37.304688 73.910156 C 45.785156 72.207031 67.097656 60.105469 67.097656 34.1875 L 67.097656 14.328125 Z M 37.304688 8.335938 L 60.476562 18.632812 L 60.476562 34.1875 C 60.476562 54.492188 44.636719 64.820312 37.304688 67.082031 C 29.976562 64.820312 14.136719 54.492188 14.136719 34.1875 L 14.136719 18.632812 Z M 53.171875 23.578125 L 33.996094 42.746094 L 24.824219 33.574219 L 20.140625 38.253906 L 33.996094 52.109375 L 57.84375 28.253906 Z M 53.171875 23.578125 " fill-opacity="1" fill-rule="nonzero"/></g></svg>