<svg xmlns="http://www.w3.org/2000/svg" xmlns:xlink="http://www.w3.org/1999/xlink" width="100" zoomAndPan="magnify" viewBox="0 0 75 74.999997" height="100" preserveAspectRatio="xMidYMid meet" version="1.0"><defs><clipPath id="484159ccb6"><path d="M 2.914062 4 L 71.914062 4 L 71.914062 73.003906 L 2.914062 73.003906 Z M 2.914062 4 " clip-rule="nonzero"/></clipPath></defs><g clip-path="url(#484159ccb6)"><path fill="#00ff7f" d="M 70.363281 62.347656 L 61.773438 52.683594 C 61.160156 51.992188 60.316406 51.609375 59.394531 51.53125 C 58.476562 51.457031 57.554688 51.761719 56.863281 52.375 L 55.40625 53.679688 L 52.1875 50 C 59.394531 43.019531 62.003906 32.664062 58.933594 23.078125 L 65.453125 16.558594 L 67.21875 18.320312 C 67.527344 18.628906 67.984375 18.703125 68.371094 18.628906 C 68.753906 18.472656 69.058594 18.167969 69.136719 17.707031 L 71.054688 5.742188 C 71.128906 5.359375 70.976562 4.976562 70.746094 4.746094 C 70.515625 4.515625 70.132812 4.363281 69.75 4.4375 L 57.863281 6.355469 C 57.402344 6.433594 57.09375 6.738281 56.941406 7.121094 C 56.789062 7.507812 56.941406 7.964844 57.246094 8.273438 L 59.011719 10.039062 L 54.410156 14.5625 C 54.179688 14.257812 53.875 13.949219 53.644531 13.640625 C 44.054688 2.828125 27.410156 1.753906 16.519531 11.339844 C 15.0625 12.644531 13.835938 14.027344 12.761719 15.484375 C 12.761719 15.484375 12.683594 15.558594 12.683594 15.558594 C 11.226562 17.554688 10.078125 19.777344 9.234375 22.078125 C 9.15625 22.386719 9.082031 22.539062 9.082031 22.691406 C 6.625 29.980469 7.394531 38.1875 11.613281 45.011719 L 4.09375 45.011719 C 3.480469 44.9375 2.945312 45.472656 2.945312 46.085938 L 2.945312 68.941406 C 2.945312 69.558594 3.480469 70.09375 4.09375 70.09375 L 43.058594 70.09375 C 43.671875 70.09375 44.207031 69.558594 44.207031 68.941406 L 44.207031 55.214844 C 46.433594 54.292969 48.582031 52.988281 50.5 51.457031 L 53.71875 55.136719 L 52.261719 56.441406 C 51.570312 57.054688 51.1875 57.898438 51.113281 58.820312 C 51.035156 59.738281 51.34375 60.660156 51.957031 61.351562 L 60.546875 71.015625 C 61.851562 72.472656 63.613281 73.238281 65.453125 73.238281 C 66.988281 73.238281 68.523438 72.703125 69.75 71.628906 C 71.054688 70.476562 71.820312 68.867188 71.898438 67.179688 C 72.050781 65.339844 71.515625 63.652344 70.363281 62.347656 Z M 61.464844 9.269531 L 60.46875 8.273438 L 68.675781 6.96875 L 67.371094 15.175781 L 66.375 14.179688 C 65.914062 13.71875 65.226562 13.71875 64.765625 14.179688 L 56.863281 21.925781 L 44.4375 34.351562 L 38.226562 28.140625 C 37.765625 27.679688 37.074219 27.679688 36.617188 28.140625 L 26.875 37.804688 L 11.535156 22.539062 C 12.070312 21.003906 12.839844 19.546875 13.683594 18.246094 L 26.03125 30.59375 C 26.492188 31.054688 27.179688 31.054688 27.640625 30.59375 L 37.382812 20.929688 L 43.59375 27.140625 C 44.054688 27.601562 44.746094 27.601562 45.207031 27.140625 L 61.390625 11.035156 C 61.621094 10.804688 61.695312 10.496094 61.695312 10.191406 C 61.695312 9.882812 61.621094 9.5 61.464844 9.269531 Z M 18.054688 13.183594 C 27.949219 4.4375 43.136719 5.359375 51.878906 15.253906 C 52.1875 15.558594 52.492188 15.945312 52.722656 16.328125 L 44.4375 24.609375 L 38.226562 18.398438 C 37.765625 17.9375 37.074219 17.9375 36.617188 18.398438 L 26.875 28.0625 L 15.0625 16.328125 C 15.984375 15.175781 16.980469 14.101562 18.054688 13.183594 Z M 41.90625 67.792969 L 5.246094 67.792969 L 5.246094 47.238281 L 41.90625 47.238281 Z M 43.058594 44.9375 L 14.371094 44.9375 C 10.152344 39.03125 9.003906 31.667969 10.769531 24.992188 L 26.03125 40.257812 C 26.261719 40.488281 26.566406 40.5625 26.875 40.5625 C 27.179688 40.5625 27.488281 40.488281 27.71875 40.257812 L 37.460938 30.59375 L 43.671875 36.804688 C 44.132812 37.265625 44.824219 37.265625 45.28125 36.804688 L 57.171875 24.992188 C 59.472656 33.738281 56.710938 43.019531 49.882812 49.078125 C 48.199219 50.613281 46.28125 51.839844 44.285156 52.757812 L 44.285156 46.164062 C 44.207031 45.472656 43.671875 44.9375 43.058594 44.9375 Z M 68.292969 69.863281 C 66.527344 71.398438 63.84375 71.242188 62.308594 69.480469 L 53.71875 59.738281 C 53.488281 59.507812 53.414062 59.203125 53.414062 58.894531 C 53.414062 58.589844 53.566406 58.28125 53.796875 58.128906 L 58.398438 54.0625 C 58.628906 53.910156 58.859375 53.757812 59.164062 53.757812 C 59.164062 53.757812 59.242188 53.757812 59.242188 53.757812 C 59.550781 53.757812 59.855469 53.910156 60.007812 54.140625 L 68.597656 63.882812 C 69.367188 64.722656 69.671875 65.796875 69.671875 66.949219 C 69.597656 68.097656 69.058594 69.097656 68.292969 69.863281 Z M 68.292969 69.863281 " fill-opacity="1" fill-rule="nonzero"/></g><path fill="#00ff7f" d="M 8.3125 54.832031 C 8.3125 56.976562 10.078125 58.664062 12.148438 58.664062 L 12.761719 58.664062 C 13.605469 58.664062 14.296875 59.355469 14.296875 60.199219 C 14.296875 61.042969 13.605469 61.734375 12.761719 61.734375 L 9.464844 61.734375 C 8.851562 61.734375 8.3125 62.269531 8.3125 62.882812 C 8.3125 63.496094 8.851562 64.035156 9.464844 64.035156 L 12.761719 64.035156 C 14.910156 64.035156 16.597656 62.347656 16.597656 60.199219 C 16.597656 58.050781 14.832031 56.363281 12.761719 56.363281 L 12.148438 56.363281 C 11.304688 56.363281 10.613281 55.675781 10.613281 54.832031 C 10.613281 53.988281 11.304688 53.296875 12.148438 53.296875 L 15.445312 53.296875 C 16.058594 53.296875 16.597656 52.757812 16.597656 52.144531 C 16.597656 51.53125 16.058594 50.996094 15.445312 50.996094 L 12.148438 50.996094 C 10.078125 50.996094 8.3125 52.683594 8.3125 54.832031 Z M 8.3125 54.832031 " fill-opacity="1" fill-rule="nonzero"/><path fill="#00ff7f" d="M 20.585938 64.035156 L 26.566406 64.035156 C 27.179688 64.035156 27.71875 63.496094 27.71875 62.882812 C 27.71875 62.269531 27.179688 61.734375 26.566406 61.734375 L 21.734375 61.734375 L 21.734375 58.664062 L 26.566406 58.664062 C 27.179688 58.664062 27.71875 58.128906 27.71875 57.515625 C 27.71875 56.902344 27.179688 56.363281 26.566406 56.363281 L 21.734375 56.363281 L 21.734375 53.296875 L 26.566406 53.296875 C 27.179688 53.296875 27.71875 52.757812 27.71875 52.144531 C 27.71875 51.53125 27.179688 50.996094 26.566406 50.996094 L 20.585938 50.996094 C 19.972656 50.996094 19.433594 51.53125 19.433594 52.144531 L 19.433594 62.882812 C 19.433594 63.496094 19.972656 64.035156 20.585938 64.035156 Z M 20.585938 64.035156 " fill-opacity="1" fill-rule="nonzero"/><path fill="#00ff7f" d="M 34.699219 64.035156 C 37 64.035156 38.839844 62.195312 38.839844 59.890625 L 38.839844 55.058594 C 38.839844 52.757812 37 50.917969 34.699219 50.917969 C 32.398438 50.917969 30.554688 52.757812 30.554688 55.058594 L 30.554688 59.890625 C 30.554688 62.195312 32.398438 64.035156 34.699219 64.035156 Z M 32.855469 55.136719 C 32.855469 54.140625 33.699219 53.296875 34.699219 53.296875 C 35.695312 53.296875 36.539062 54.140625 36.539062 55.136719 L 36.539062 59.96875 C 36.539062 60.964844 35.695312 61.808594 34.699219 61.808594 C 33.699219 61.808594 32.855469 60.964844 32.855469 59.96875 Z M 32.855469 55.136719 " fill-opacity="1" fill-rule="nonzero"/></svg>